<svg id="_01-agenda" data-name="01-agenda" xmlns="http://www.w3.org/2000/svg" viewBox="0 0 32 32"><defs><style>.cls-1{stroke-linejoin:round;stroke-width:2px}</style></defs><title>01-agenda</title><path class="cls-1" d="M4 5V1h7H31V31H11 4V27"/><path class="cls-1" d="M4 5H5A2 2 0 0 1 7 7 2 2 0 0 1 5 9H3A2 2 0 0 1 1 7a2 2 0 0 1 .59-1.41A2 2 0 0 1 3 5z"/><path class="cls-1" d="M4 14H5a2 2 0 0 1 2 2 2 2 0 0 1-2 2H3a2 2 0 0 1-2-2 2 2 0 0 1 .59-1.41A2 2 0 0 1 3 14z"/><path class="cls-1" d="M4 23H5a2 2 0 0 1 2 2 2 2 0 0 1-2 2H3a2 2 0 0 1-2-2 2 2 0 0 1 .59-1.41A2 2 0 0 1 3 23z"/><path class="cls-1" d="M11 1V31z"/><path class="cls-1" d="M4 9v5z"/><path class="cls-1" d="M4 18v5z"/><path class="cls-1" d="M14 23H28z"/><path class="cls-1" d="M14 27H28z"/></svg>